<svg width="30" height="30" viewBox="0 0 30 30" fill="none" xmlns="http://www.w3.org/2000/svg">
<path d="M14.3446 16V14.1667H2.12506C2.76754 8.07666 7.88849 3.22655 14.3446 2.5746V0.0742188C6.29038 0.826808 0 7.22214 0 15.0002C0 22.7782 6.29038 29.1735 14.3446 29.9261V27.5921C7.88852 26.9401 2.7676 22.09 2.12512 16H14.3446Z" fill="white"/>
<path d="M15.5842 0C16.3079 0.0676168 17.0173 0.180557 17.7094 0.335759L17.7093 27C23.1782 26.4244 27.4494 21.5326 27.4494 15.5833C27.4494 13.5238 27.1946 11.5042 26.2984 9.83333L28.4737 8.56953C29.4526 10.52 30 12.6998 30 15C30 22.8166 23.6784 29.2437 15.5842 30V0Z" fill="white"/>
</svg>
